<?xml version="1.0" encoding="UTF-8" standalone="no"?>
<!-- Created with Inkscape (http://www.inkscape.org/) -->
<svg
   xmlns:dc="http://purl.org/dc/elements/1.1/"
   xmlns:cc="http://creativecommons.org/ns#"
   xmlns:rdf="http://www.w3.org/1999/02/22-rdf-syntax-ns#"
   xmlns:svg="http://www.w3.org/2000/svg"
   xmlns="http://www.w3.org/2000/svg"
   xmlns:sodipodi="http://sodipodi.sourceforge.net/DTD/sodipodi-0.dtd"
   xmlns:inkscape="http://www.inkscape.org/namespaces/inkscape"
   width="229.11951"
   height="181.09122"
   id="svg4710"
   sodipodi:version="0.32"
   inkscape:version="0.46"
   sodipodi:docname="labelterrein.svg"
   inkscape:output_extension="org.inkscape.output.svg.inkscape"
   version="1.0">
  <defs
     id="defs4712">
    <inkscape:perspective
       sodipodi:type="inkscape:persp3d"
       inkscape:vp_x="0 : 526.18109 : 1"
       inkscape:vp_y="0 : 1000 : 0"
       inkscape:vp_z="744.09448 : 526.18109 : 1"
       inkscape:persp3d-origin="372.04724 : 350.78739 : 1"
       id="perspective4718" />
    <inkscape:perspective
       id="perspective4727"
       inkscape:persp3d-origin="372.04724 : 350.78739 : 1"
       inkscape:vp_z="744.09448 : 526.18109 : 1"
       inkscape:vp_y="0 : 1000 : 0"
       inkscape:vp_x="0 : 526.18109 : 1"
       sodipodi:type="inkscape:persp3d" />
  </defs>
  <sodipodi:namedview
     id="base"
     pagecolor="#ffffff"
     bordercolor="#666666"
     borderopacity="1.0"
     gridtolerance="10000"
     guidetolerance="10"
     objecttolerance="10"
     inkscape:pageopacity="0.0"
     inkscape:pageshadow="2"
     inkscape:zoom="2.5073465"
     inkscape:cx="117.65426"
     inkscape:cy="90.545613"
     inkscape:document-units="px"
     inkscape:current-layer="layer14"
     showgrid="false"
     inkscape:window-width="1003"
     inkscape:window-height="987"
     inkscape:window-x="256"
     inkscape:window-y="19" />
  <metadata
     id="metadata4715">
    <rdf:RDF>
      <cc:Work
         rdf:about="">
        <dc:format>image/svg+xml</dc:format>
        <dc:type
           rdf:resource="http://purl.org/dc/dcmitype/StillImage" />
      </cc:Work>
    </rdf:RDF>
  </metadata>
  <g
     inkscape:label="paars"
     inkscape:groupmode="layer"
     id="layer1"
     style="display:inline"
     transform="translate(-371.41033,-93.783073)">
    <g
       id="g4733"
       transform="translate(77.142857,-305.71429)"
       inkscape:label="paars">
      <path
         style="opacity:1;fill:#740e7a;fill-opacity:1;fill-rule:nonzero;stroke:none;stroke-width:1;stroke-linecap:butt;stroke-linejoin:miter;marker:none;marker-start:none;marker-mid:none;marker-end:none;stroke-miterlimit:4;stroke-dasharray:none;stroke-dashoffset:0;stroke-opacity:1;visibility:visible;display:inline;overflow:visible;enable-background:accumulate"
         d="M 460.70001,268.02018 C 459.48614,265.78495 456.54617,260.95501 454.53088,257.88521 C 449.30137,249.91931 444.55005,244.07383 438.51632,238.18275 C 423.84271,223.85606 406.83876,215.96949 376.8913,209.60057 C 374.08814,209.00442 371.62519,208.48792 371.41808,208.45279 C 371.21096,208.41765 375.18047,207.21001 380.2392,205.76913 C 394.6712,201.65846 405.81698,198.23592 415.19656,194.95681 C 416.88936,194.36501 418.52463,193.77788 420.1113,193.19222 C 428.78904,189.98916 436.01328,186.83007 443.24574,183.19115 C 451.20355,179.18728 457.8452,175.17128 464.00464,170.59705 C 466.35286,168.85318 468.63099,167.02817 470.88525,165.09177 C 473.40798,162.92476 479.55212,156.79387 481.27235,154.72708 C 481.96781,153.89153 482.58905,153.20789 482.65289,153.20789 C 482.71674,153.20789 484.21901,154.5985 485.99128,156.29814 C 501.56933,171.23774 515.13575,181.48661 530.52719,189.94321 C 548.05998,199.57634 569.55576,206.92451 595.06705,212.00568 L 598.79152,212.7475 L 597.61537,212.87535 C 596.96849,212.94566 594.41037,213.22287 591.93065,213.49136 C 549.64282,218.07012 517.84957,228.30411 490.8798,246.01881 C 482.06805,251.80668 473.33026,258.58019 464.71047,266.30521 C 463.20108,267.65793 461.82981,268.87074 461.66321,269.00037 C 461.40617,269.20035 461.26032,269.05194 460.70001,268.02018 L 460.70001,268.02018 z"
         id="path5306"
         transform="translate(-77.142857,305.71429)"
         sodipodi:nodetypes="csssssssssssssscccsssscc" />
    </g>
    <g
       inkscape:groupmode="layer"
       id="layer13"
       inkscape:label="geel"
       style="display:inline">
      <path
         style="fill:#f5cf25"
         d="M 436.51003,93.79823 C 435.85035,93.99332 435.12425,96.11415 434.69753,99.67323 C 433.09165,113.06738 431.80973,119.32519 428.04128,132.42323 C 423.93638,146.69065 417.61508,161.33344 410.29128,173.42324 C 409.12514,175.34824 407.59512,178.04823 406.91628,179.42324 C 393.1111,201.98572 389.22331,205.35155 388.38503,206.45449 L 384.04128,211.61074 L 380.07253,215.70449 C 376.44496,219.47972 375.04354,222.43033 376.88503,222.39199 C 377.29753,222.3834 380.33503,221.72009 383.63503,220.92324 C 395.7599,217.99558 402.12192,219.39865 406.13503,225.89199 L 408.32253,229.45449 L 406.19753,233.04824 C 406.12323,233.17417 406.07761,233.30296 406.01003,233.42324 C 405.94436,233.54012 405.85664,233.64855 405.79128,233.76699 C 404.88383,235.11318 404.13503,236.40479 404.13503,236.86074 C 404.13503,237.82309 405.27959,237.44229 407.97878,235.54824 C 413.84506,231.43184 427.68683,224.13093 432.51003,222.61074 C 440.90848,219.96368 458.67435,220.54511 468.41628,223.79824 C 472.69577,225.22729 476.65647,226.42323 477.22878,226.42324 C 477.80107,226.42324 478.96628,227.09823 479.79128,227.92324 C 480.61628,228.74824 482.18657,229.42323 483.29128,229.42324 L 485.72878,229.73574 L 486.91628,225.76699 C 489.81717,216.08466 500.85072,213.10752 519.60378,216.98574 C 523.83023,217.85979 527.52812,218.34265 527.82253,218.04824 C 528.11694,217.75382 526.85956,216.63739 525.01003,215.54824 C 491.51922,191.66576 470.47364,173.01661 454.69753,143.92324 C 453.67506,141.72324 451.31501,136.77322 449.44753,132.92323 C 444.41402,122.54616 440.69073,110.896 437.54128,95.61073 C 437.25845,94.23808 436.90584,93.68117 436.51003,93.79823 z M 482.63503,151.92324 L 482.57253,151.98574 L 488.04128,157.73574 C 488.86416,158.59845 489.79572,159.52649 490.79128,160.45449 C 489.86514,159.55889 488.97869,158.664 488.13503,157.76699 L 482.63503,151.92324 z M 515.63503,179.04824 C 525.09506,185.15494 535.43184,191.04885 544.88503,195.51699 C 546.4937,196.27734 548.24387,197.03351 550.04128,197.79824 C 540.81981,193.7301 531.63117,188.85598 521.47878,182.67324 C 519.43895,181.431 517.48057,180.21579 515.63503,179.04824 z M 578.57253,207.82949 C 587.43049,210.37454 595.36274,212.10997 600.07253,212.36074 C 595.95526,212.02085 587.11147,210.11648 578.57253,207.82949 z M 426.01003,228.01699 L 427.79128,229.29824 C 427.13075,228.77663 426.54326,228.32156 426.01003,228.01699 z M 408.79128,230.14199 C 408.48711,230.33412 408.03484,230.80271 407.54128,231.39199 C 407.08513,231.93661 406.60753,232.59318 406.13503,233.26699 C 406.58591,232.58786 407.07482,231.94498 407.54128,231.39199 C 408.00509,230.84214 408.43539,230.36678 408.79128,230.14199 z M 441.19753,242.32949 C 441.75714,242.9775 442.3284,243.63023 442.88503,244.29824 C 442.32221,243.63316 441.76396,242.97017 441.19753,242.32949 z"
         id="path5345"
         sodipodi:nodetypes="csssccccsscccscsssssscccssccssccccccccscsccccccccscsccsc" />
    </g>
    <g
       inkscape:groupmode="layer"
       id="layer12"
       inkscape:label="groen"
       style="display:inline">
      <path
         style="fill:#197e2f"
         d="M 327.07141,542.75556 C 327.07141,541.76669 331.41719,534.98623 332.63387,534.21773 C 334.76415,532.87217 341.8257,521.96271 346.9454,511.73245 C 356.42442,492.79137 360.63142,475.93404 361.72023,452.5302 C 362.08512,444.68691 362.56383,438.44983 362.78403,438.67003 C 363.00423,438.89023 364.50711,444.82178 366.12376,451.85125 C 373.63531,484.51273 385.8975,510.27841 403.09712,529.54074 C 407.31231,534.26145 409.68416,535.83443 408.03515,535.83443 C 406.93044,535.83443 403.53927,534.61574 402.71427,533.79074 C 401.88927,532.96574 400.74603,532.29074 400.17374,532.29074 C 399.60144,532.29074 395.6318,531.12152 391.35231,529.69247 C 381.61037,526.43936 363.84638,525.84589 355.44793,528.49295 C 350.62473,530.01315 336.78332,537.31176 330.91704,541.42816 C 328.21785,543.32219 327.07141,543.71791 327.07141,542.75556 z"
         id="path4735"
         transform="translate(77.142857,-305.71429)"
         sodipodi:nodetypes="cssssssssssssc" />
    </g>
    <g
       inkscape:groupmode="layer"
       id="layer14"
       inkscape:label="logo">
      <path
         style="fill:#fd1812"
         d="M 539.607,164.56356 C 538.76486,163.72142 538.76,163.67285 539.3983,162.48017 C 539.86319,161.6115 539.81018,161.57285 538.6108,161.90582 C 535.88948,162.66134 534.83929,162.31442 534.12972,160.42557 C 534.1049,160.3595 533.08132,160.53703 531.85511,160.82007 C 529.96933,161.25536 529.40394,161.22007 528.18773,160.59115 C 526.60732,159.77388 526.38527,158.79147 527.44045,157.28498 C 528.28332,156.08162 530.79025,154.94444 537.05123,152.9254 C 544.16483,150.6314 543.84885,150.69164 543.85674,151.62788 C 543.86053,152.07768 544.05685,152.74945 544.29301,153.1207 C 544.64656,153.67648 544.88234,153.69657 545.62802,153.23444 C 547.61881,152.00068 551.41109,150.80635 553.82838,150.65184 C 555.69086,150.5328 556.64336,150.2272 557.34798,149.52258 C 558.05444,148.8161 558.76515,148.58908 559.99282,148.67772 C 561.23101,148.76713 561.93121,148.53934 562.66073,147.80981 C 563.20474,147.2658 564.05485,146.8207 564.54985,146.8207 C 565.04485,146.8207 565.85485,146.4157 566.34985,145.9207 C 566.84676,145.4238 567.84985,145.0207 568.58948,145.0207 C 569.5651,145.0207 570.13735,144.68444 570.69549,143.7832 C 571.89739,141.84247 572.66334,141.4207 574.98586,141.4207 C 577.58807,141.4207 578.94985,142.51764 578.94985,144.61377 C 578.94985,146.31284 578.24212,148.90016 577.12864,149.19135 C 576.67787,149.30923 576.33625,150.23902 575.8556,151.36033 C 574.94549,153.48355 573.38927,154.65035 571.31486,155.16024 C 570.64249,155.32551 569.79874,155.71107 569.85236,155.94828 C 569.97102,156.4732 567.18737,157.37531 563.2561,158.32973 C 561.64735,158.7203 559.55447,159.51789 558.33025,160.10215 C 557.10603,160.68641 555.62215,161.27695 555.1015,161.27695 C 554.58084,161.27695 553.96247,161.51045 553.72735,161.7271 C 553.17418,162.2368 542.05905,165.2707 541.06883,165.2707 C 540.65375,165.2707 539.99592,164.95248 539.607,164.56356 z"
         id="path2576"
         sodipodi:nodetypes="csssssssssssssssssssssssssssssc" />
      <path
         style="fill:#fdfefb"
         d="M 545.07668,172.81118 C 544.45532,172.49579 544.05407,171.89758 544.07415,171.31655 C 544.10422,170.44595 543.89464,170.35705 542.00588,170.43921 C 539.63069,170.54252 538.41568,169.81407 538.41568,168.28672 C 538.41568,166.61279 541.2279,165.18818 550.34068,162.24572 C 555.04318,160.72732 561.01693,158.75617 563.61568,157.86541 C 567.62529,156.49103 569.10912,156.21317 573.4161,156.03018 C 576.20758,155.91158 578.99711,155.94143 579.61505,156.09653 C 581.37898,156.53925 581.84068,157.40088 583.19068,159.28062 C 584.10905,160.55937 583.86655,161.08064 586.00318,161.11334 C 588.09192,161.14531 586.92843,162.18188 583.19068,163.18075 C 581.08693,163.74296 578.51068,164.67291 577.39693,164.97231 C 576.28318,165.2717 574.46068,165.98987 573.34693,166.22447 C 572.23318,166.45907 570.47818,166.8302 569.24068,167.32419 C 568.00318,167.81818 565.46068,168.49116 563.72818,168.95719 C 561.99568,169.42322 557.34313,170.5895 553.45793,171.82391 C 547.48424,173.72189 545.95278,173.25588 545.07668,172.81118 z"
         id="path2592"
         sodipodi:nodetypes="csssssssssssssssc" />
      <path
         style="fill:#004199"
         d="M 552.2089,184.02833 C 551.27017,183.26819 551.22037,183.05471 551.72395,181.94947 C 552.21761,180.866 552.19751,180.75138 551.55698,180.99718 C 551.15648,181.15086 549.73553,181.4051 548.39932,181.56215 C 545.55682,181.89623 544.33163,181.27781 545.07694,179.88517 C 545.49638,179.10145 545.38508,179.05917 543.56053,179.30926 C 541.92217,179.53382 541.53878,179.44192 541.27791,178.76208 C 540.81339,177.55157 542.28074,175.88005 545.08971,174.41992 C 547.91986,172.94878 563.58184,168.00522 567.42058,167.3714 C 571.0335,166.77486 578.31112,164.7724 579.02773,164.17766 C 579.86554,163.48234 585.50433,161.92547 587.18487,161.92547 C 587.95891,161.92547 589.4783,161.61001 590.5613,161.22444 C 591.64429,160.83888 593.79172,160.48585 595.33336,160.43993 C 597.70807,160.3692 598.29155,160.51165 599.15211,161.37221 C 600.98077,163.20087 599.42718,164.42312 593.04813,166.1744 C 590.16156,166.96687 589.40898,167.34238 589.51468,167.93744 C 589.61222,168.48659 588.81159,169.06926 586.58968,170.06617 C 584.05405,171.20383 583.66517,171.51421 584.31787,171.87949 C 585.41308,172.4924 585.30126,174.18947 584.09287,175.29439 C 582.67407,176.59172 581.04894,177.33206 575.88037,179.03568 C 573.40537,179.85147 569.06012,181.3979 566.22425,182.47221 C 560.93795,184.47479 559.1151,184.8052 558.23095,183.92105 C 557.85838,183.54848 557.16692,183.6073 555.58579,184.14605 C 553.0082,185.02432 553.45828,185.04001 552.2089,184.02833 z"
         id="path2608" />
      <path
         style="fill:#008838"
         d="M 559.31089,175.05125 C 559.31089,174.90609 559.90648,173.94421 560.63441,172.91375 C 562.07753,170.87087 564.92041,162.82552 565.36595,159.52348 C 565.58799,157.8779 565.46981,157.24065 564.78596,156.39615 C 563.95307,155.36756 563.89139,155.35893 562.74401,156.11073 C 561.83673,156.7052 561.56089,157.25592 561.56089,158.47291 C 561.56089,161.69106 559.4427,164.06518 556.57146,164.06518 C 554.12476,164.06518 552.56089,162.64533 552.56089,160.42395 C 552.56089,158.75207 552.49467,158.66466 551.43046,158.93176 C 549.70368,159.36515 545.69026,157.20717 544.03368,154.95459 C 541.4497,151.44091 542.52236,149.43559 547.38589,148.68765 C 551.97881,147.98132 551.8886,148.02684 551.03295,146.84716 C 549.8316,145.19088 548.0682,141.09434 547.77955,139.28924 C 547.43204,137.11602 548.2806,136.61518 552.31013,136.61518 C 555.11414,136.61518 555.24038,136.57012 554.72928,135.75172 C 554.30472,135.07188 554.31562,134.73695 554.78057,134.17672 C 556.91648,131.60311 561.12973,136.58636 562.26392,143.02768 C 562.42735,143.95581 562.66624,144.71518 562.79479,144.71518 C 562.92334,144.71518 564.51689,143.41193 566.33602,141.81906 C 569.02111,139.46792 570.02976,138.86501 571.69608,138.61513 C 576.99668,137.82026 583.0722,143.42611 579.91761,146.3897 C 579.10448,147.15361 577.16017,147.12656 575.85721,146.91512 C 574.9511,146.76808 573.67464,146.08966 573.02061,146.25381 C 572.03995,146.49995 571.92699,146.66735 572.37628,147.20872 C 572.67593,147.56978 573.17762,147.86518 573.49114,147.86518 C 573.80467,147.86518 574.51279,148.23087 575.06476,148.67782 L 576.06833,149.49047 L 577.86171,152.33407 L 574.42386,153.88393 L 571.508,153.26518 C 570.05896,153.26518 568.26321,153.38722 567.51744,153.53638 L 566.16149,153.80757 L 567.0508,156.33784 C 568.56179,160.63688 567.38173,165.5799 563.03058,173.17768 C 562.03309,174.91946 561.57546,175.31518 560.55868,175.31518 C 559.8724,175.31518 559.31089,175.19641 559.31089,175.05125 z"
         id="path2624"
         sodipodi:nodetypes="cssssssssssssssssssssssssccccccccssc" />
      <path
         style="fill:#fde500"
         d="M 563.06824,181.44753 C 563.16328,181.26191 564.09676,179.28753 565.14266,177.06003 C 566.18855,174.83253 567.33325,172.45316 567.68644,171.77253 C 568.45341,170.29449 568.385,170.27975 566.12045,171.43503 C 565.15017,171.93003 563.95881,172.33503 563.47299,172.33503 C 562.30251,172.33503 560.00956,169.99693 559.32589,168.10625 C 558.84158,166.76693 558.89452,166.40822 559.79041,164.95863 C 560.34653,164.05882 562.15016,162.17672 563.79849,160.7762 L 566.79545,158.22978 L 566.91865,160.21991 C 567.13407,163.69982 568.91582,165.87537 570.3642,164.427 C 571.32184,163.46936 571.25204,161.90047 570.1128,158.77599 C 569.10306,156.00666 568.72427,155.52214 567.20627,155.05805 C 565.75492,154.61435 563.87045,156.59379 563.87045,158.56199 C 563.87045,159.42545 563.69175,160.24236 563.47334,160.37734 C 563.04492,160.64212 560.73433,159.02839 560.11952,158.035 C 559.91275,157.70093 559.34206,157.27907 558.85132,157.09753 C 558.02161,156.7906 558.09747,156.57962 559.9332,154.08875 C 562.26866,150.91978 565.17036,149.17811 568.84396,148.74029 C 571.64475,148.40649 572.06293,148.67106 573.6223,151.76337 L 574.48125,153.46672 L 576.01197,150.30255 C 577.76026,146.68866 578.4514,145.97309 583.51286,142.5366 L 587.18026,140.04659 L 587.45036,141.39706 C 587.80076,143.14912 587.797,147.53977 587.44357,149.30691 C 587.29129,150.06832 585.97332,152.10902 584.51476,153.84179 C 581.87136,156.98215 581.86786,156.99019 583.42718,156.33866 C 584.28758,155.97917 586.38598,155.68503 588.09028,155.68503 C 590.75581,155.68503 591.35549,155.83931 592.37974,156.78855 C 593.35401,157.69146 593.57045,158.29133 593.57045,160.08857 C 593.57045,161.92649 593.32801,162.56556 592.08536,164.00308 C 590.7701,165.52461 590.31983,165.74354 588.14786,165.91754 C 585.36159,166.14075 582.58523,165.36209 583.68569,164.66609 C 584.04856,164.43659 585.01766,164.24571 585.83925,164.24192 C 587.1294,164.23598 587.31344,164.097 587.18925,163.22253 C 587.07252,162.40065 586.71465,162.18296 585.28834,162.06622 C 584.32194,161.98712 583.06002,162.04067 582.48409,162.18522 C 581.16011,162.51752 578.27045,165.02741 578.27045,165.84509 C 578.27045,167.03382 581.03362,168.03459 584.27876,168.02119 L 587.36207,168.00844 L 585.85376,169.26623 C 583.82164,170.96082 580.95673,172.33503 579.45603,172.33503 C 578.77938,172.33503 577.6014,172.01216 576.8383,171.61755 L 575.45083,170.90006 L 572.02314,174.22689 C 566.79881,179.29748 563.96149,181.78503 563.40223,181.78503 C 563.1235,181.78503 562.97321,181.63316 563.06824,181.44753 z"
         id="path2640" />
    </g>
    <g
       inkscape:groupmode="layer"
       id="layer15"
       inkscape:label="text">
      <text
         xml:space="preserve"
         style="font-size:19.11554527px;font-style:normal;font-weight:bold;fill:#740e7a;fill-opacity:1;stroke:none;stroke-width:1px;stroke-linecap:butt;stroke-linejoin:miter;stroke-opacity:1;font-family:Bitstream Vera Sans;-inkscape-font-specification:Sans Bold"
         x="506.19437"
         y="252.92249"
         id="text5390"><tspan
           sodipodi:role="line"
           id="tspan5392"
           x="506.19437"
           y="252.92249">Scouting</tspan></text>
      <text
         xml:space="preserve"
         style="font-size:18.28336906px;font-style:normal;font-weight:bold;fill:#740e7a;fill-opacity:1;stroke:none;stroke-width:1px;stroke-linecap:butt;stroke-linejoin:miter;stroke-opacity:1;font-family:Bitstream Vera Sans;-inkscape-font-specification:Sans Bold"
         x="475.27805"
         y="274.61539"
         id="text5394"><tspan
           sodipodi:role="line"
           id="tspan5396"
           x="475.27805"
           y="274.61539">Labelterrein</tspan></text>
    </g>
  </g>
</svg>
